<svg width="832" height="231" viewBox="0 0 832 231" fill="none" xmlns="http://www.w3.org/2000/svg">
<path d="M594.646 -560.042C613.94 -501.69 655.048 -455.683 707.188 -434.091C873.026 -365.414 873.026 -102.904 707.188 -34.2279C655.048 -12.6352 613.94 33.3712 594.646 91.723C533.281 277.321 298.722 277.321 237.354 91.723C218.06 33.3712 176.952 -12.6352 124.812 -34.2279C-41.026 -102.904 -41.026 -365.414 124.812 -434.091C176.952 -455.683 218.06 -501.69 237.354 -560.042C298.719 -745.639 533.278 -745.639 594.646 -560.042Z" fill="white"/>
<circle cx="416.485" cy="104.806" r="54.8061" fill="url(#paint0_linear_11_3)"/>
<path d="M401.268 169.448V181.933H398.182V179.125C398.182 177.324 398.234 175.092 398.339 172.43C397.897 174.301 397.449 175.952 396.996 177.382L395.549 181.933H393.056L391.591 177.504C391.161 176.214 390.707 174.522 390.231 172.43C390.336 174.801 390.388 176.894 390.388 178.707V181.933H387.302V169.448H391.975L393.317 173.79C393.712 175.057 394.049 176.504 394.328 178.132C394.712 176.272 395.067 174.801 395.392 173.72L396.665 169.448H401.268ZM413.537 169.448V172.134H406.806V174.208H412.961V176.772H406.806V179.248H413.694V181.933H403.546V169.448H413.537ZM425.541 169.448V172.134H418.811V174.208H424.966V176.772H418.811V179.248H425.698V181.933H415.55V169.448H425.541ZM441.521 169.448V181.933H438.435V179.125C438.435 177.324 438.487 175.092 438.592 172.43C438.15 174.301 437.702 175.952 437.249 177.382L435.802 181.933H433.309L431.844 177.504C431.414 176.214 430.96 174.522 430.484 172.43C430.589 174.801 430.641 176.894 430.641 178.707V181.933H427.555V169.448H432.228L433.57 173.79C433.965 175.057 434.302 176.504 434.581 178.132C434.965 176.272 435.32 174.801 435.645 173.72L436.918 169.448H441.521ZM371.104 195.65V200.933H369.517V188.448H374.678C375.992 188.448 376.98 188.809 377.643 189.529C378.224 190.157 378.514 191.017 378.514 192.11C378.514 193.214 378.16 194.092 377.451 194.743C376.8 195.347 375.992 195.65 375.027 195.65H371.104ZM371.104 194.237H374.434C375.19 194.237 375.783 194.045 376.213 193.662C376.643 193.278 376.858 192.738 376.858 192.04C376.858 191.354 376.643 190.82 376.213 190.436C375.783 190.053 375.19 189.861 374.434 189.861H371.104V194.237ZM382.564 195.562V200.933H380.978V188.448H386.714C388.039 188.448 389.027 188.774 389.678 189.425C390.248 189.994 390.533 190.785 390.533 191.796C390.533 192.505 390.376 193.092 390.062 193.557C389.76 194.022 389.254 194.429 388.545 194.778C389.114 194.999 389.533 195.295 389.8 195.667C390.068 196.051 390.219 196.835 390.254 198.021C390.277 198.893 390.329 199.48 390.411 199.782C390.504 200.072 390.701 200.322 391.003 200.532V200.933H389.085C388.83 200.398 388.702 199.834 388.702 199.241L388.719 197.289C388.719 197.161 388.667 196.963 388.562 196.696C388.458 196.428 388.359 196.237 388.266 196.12C387.952 195.748 387.417 195.562 386.662 195.562H382.564ZM382.564 194.15H386.418C388.057 194.15 388.876 193.435 388.876 192.005C388.876 190.576 388.057 189.861 386.418 189.861H382.564V194.15ZM398.431 188.257C400.361 188.257 401.883 188.925 402.999 190.262C403.964 191.424 404.446 192.9 404.446 194.691C404.446 196.748 403.825 198.375 402.581 199.573C401.488 200.607 400.105 201.124 398.431 201.124C396.49 201.124 394.961 200.456 393.845 199.119C392.88 197.957 392.398 196.481 392.398 194.691C392.398 192.633 393.026 191.006 394.281 189.808C395.362 188.774 396.745 188.257 398.431 188.257ZM398.413 189.669C396.995 189.669 395.874 190.186 395.048 191.221C394.339 192.127 393.985 193.284 393.985 194.691C393.985 196.306 394.444 197.579 395.362 198.509C396.164 199.311 397.181 199.712 398.413 199.712C399.843 199.712 400.971 199.195 401.796 198.16C402.505 197.254 402.86 196.097 402.86 194.691C402.86 193.075 402.401 191.802 401.482 190.872C400.68 190.07 399.657 189.669 398.413 189.669ZM406.585 200.933V188.448H411.398C413.083 188.448 414.379 189.076 415.286 190.331C416.076 191.436 416.472 192.889 416.472 194.691C416.472 196.76 415.96 198.352 414.937 199.468C414.042 200.444 412.862 200.933 411.398 200.933H406.585ZM408.172 199.52H411.119C413.63 199.52 414.885 197.91 414.885 194.691C414.885 191.471 413.63 189.861 411.119 189.861H408.172V199.52ZM426.881 188.448H428.467V197.01C428.467 198.358 427.973 199.404 426.985 200.148C426.137 200.799 425.027 201.124 423.655 201.124C422.074 201.124 420.854 200.712 419.993 199.887C419.25 199.154 418.878 198.195 418.878 197.01V188.448H420.464V197.01C420.464 197.87 420.743 198.538 421.301 199.015C421.859 199.48 422.644 199.712 423.655 199.712C424.724 199.712 425.55 199.445 426.131 198.91C426.631 198.433 426.881 197.8 426.881 197.01V188.448ZM441.126 192.267H439.487C439.312 191.43 439.01 190.82 438.58 190.436C438.022 189.925 437.208 189.669 436.139 189.669C434.837 189.669 433.832 190.18 433.123 191.203C432.507 192.098 432.199 193.272 432.199 194.725C432.199 196.364 432.611 197.637 433.436 198.544C434.169 199.323 435.11 199.712 436.261 199.712C437.668 199.712 438.638 199.195 439.173 198.16C439.417 197.684 439.609 197.05 439.748 196.26H441.387C441.004 199.503 439.301 201.124 436.279 201.124C434.651 201.124 433.367 200.648 432.425 199.695C431.216 198.474 430.612 196.835 430.612 194.778C430.612 192.778 431.193 191.134 432.355 189.843C433.309 188.785 434.622 188.257 436.296 188.257C439.016 188.257 440.626 189.593 441.126 192.267ZM448.222 189.861V200.933H446.635V189.861H442.52V188.448H452.302V189.861H448.222ZM462.809 192.04H461.31C461.275 190.413 460.235 189.599 458.189 189.599C457.352 189.599 456.678 189.791 456.166 190.175C455.655 190.547 455.399 191.041 455.399 191.657C455.399 192.122 455.55 192.494 455.852 192.773C456.166 193.04 456.701 193.272 457.456 193.47L460.421 194.237C462.304 194.737 463.245 195.783 463.245 197.376C463.245 198.526 462.786 199.462 461.868 200.183C461.054 200.811 459.886 201.124 458.363 201.124C456.433 201.124 455.033 200.543 454.161 199.381C453.696 198.753 453.452 197.91 453.429 196.853H454.928V196.887C454.928 197.794 455.236 198.497 455.852 198.997C456.48 199.485 457.352 199.73 458.468 199.73C459.491 199.73 460.252 199.561 460.752 199.224C461.345 198.817 461.641 198.248 461.641 197.515C461.641 196.585 460.88 195.929 459.357 195.545L456.253 194.743C454.626 194.324 453.812 193.365 453.812 191.866C453.812 190.68 454.26 189.762 455.155 189.111C455.934 188.541 456.962 188.257 458.241 188.257C460.054 188.257 461.35 188.785 462.129 189.843C462.583 190.459 462.809 191.128 462.809 191.848C462.809 191.883 462.809 191.947 462.809 192.04Z" fill="#291570"/>
<mask id="mask0_11_3" style="mask-type:alpha" maskUnits="userSpaceOnUse" x="361" y="50" width="111" height="110">
<circle cx="416.485" cy="104.806" r="54.8061" fill="url(#paint1_linear_11_3)"/>
</mask>
<g mask="url(#mask0_11_3)">
<path d="M395.462 124.026C390.467 118.845 387.969 111.676 387.969 102.517C387.969 91.7854 391.114 83.3205 397.405 77.1221C403.048 71.5713 410.496 68.7034 419.747 68.5184C427.518 68.5184 433.716 70.4612 438.342 74.3467C443.708 78.7873 446.391 85.217 446.391 93.6357V120.696C446.391 124.396 445.095 127.542 442.505 130.132C440.1 132.63 437.232 133.879 433.901 133.879H394.213C390.698 133.879 388.94 135.636 388.94 139.152V180.783L382.973 185.64H377.145V137.07C377.145 133.555 378.394 130.502 380.891 127.912C383.389 125.321 386.35 124.026 389.773 124.026H395.462ZM434.456 93.6357C434.456 89.4726 433.3 85.9571 430.987 83.0892C428.212 79.9438 424.373 78.371 419.469 78.371C413.641 78.371 408.877 80.4988 405.176 84.7544C401.568 88.9175 399.764 94.3758 399.764 101.129C399.764 108.345 401.568 114.081 405.176 118.337C408.414 122.13 412.392 124.026 417.11 124.026H429.322C432.745 124.026 434.456 122.268 434.456 118.753V93.6357Z" fill="white"/>
</g>
<defs>
<linearGradient id="paint0_linear_11_3" x1="416.485" y1="50" x2="416.485" y2="172.929" gradientUnits="userSpaceOnUse">
<stop stop-color="#4523BC"/>
<stop offset="1" stop-color="#1F1056"/>
</linearGradient>
<linearGradient id="paint1_linear_11_3" x1="416.485" y1="50" x2="416.485" y2="172.929" gradientUnits="userSpaceOnUse">
<stop stop-color="#4523BC"/>
<stop offset="1" stop-color="#1F1056"/>
</linearGradient>
</defs>
</svg>
