<svg width="132" height="156" viewBox="0 0 132 156" fill="none" xmlns="http://www.w3.org/2000/svg">
<circle cx="66.4852" cy="54.8061" r="54.8061" fill="url(#paint0_linear_1_72)"/>
<path d="M51.268 119.448V131.933H48.1818V129.125C48.1818 127.324 48.2341 125.092 48.3387 122.43C47.897 124.301 47.4495 125.952 46.9961 127.382L45.5489 131.933H43.0556L41.5909 127.504C41.1608 126.214 40.7075 124.522 40.2309 122.43C40.3355 124.801 40.3878 126.894 40.3878 128.707V131.933H37.3016V119.448H41.9745L43.3171 123.79C43.7123 125.057 44.0494 126.504 44.3284 128.132C44.712 126.272 45.0665 124.801 45.392 123.72L46.6648 119.448H51.268ZM63.5368 119.448V122.134H56.8064V124.208H62.9614V126.772H56.8064V129.248H63.6937V131.933H53.5459V119.448H63.5368ZM75.5412 119.448V122.134H68.8108V124.208H74.9658V126.772H68.8108V129.248H75.6981V131.933H65.5502V119.448H75.5412ZM91.521 119.448V131.933H88.4348V129.125C88.4348 127.324 88.4871 125.092 88.5917 122.43C88.15 124.301 87.7025 125.952 87.2491 127.382L85.8019 131.933H83.3086L81.8439 127.504C81.4138 126.214 80.9605 124.522 80.4839 122.43C80.5885 124.801 80.6408 126.894 80.6408 128.707V131.933H77.5546V119.448H82.2275L83.5701 123.79C83.9653 125.057 84.3024 126.504 84.5814 128.132C84.965 126.272 85.3195 124.801 85.645 123.72L86.9178 119.448H91.521ZM21.104 145.65V150.933H19.5173V138.448H24.6784C25.9919 138.448 26.98 138.809 27.6425 139.529C28.2237 140.157 28.5143 141.017 28.5143 142.11C28.5143 143.214 28.1598 144.092 27.4507 144.743C26.7998 145.347 25.9919 145.65 25.0271 145.65H21.104ZM21.104 144.237H24.4343C25.1898 144.237 25.7827 144.045 26.2128 143.662C26.6429 143.278 26.8579 142.738 26.8579 142.04C26.8579 141.354 26.6429 140.82 26.2128 140.436C25.7827 140.053 25.1898 139.861 24.4343 139.861H21.104V144.237ZM32.5643 145.562V150.933H30.9776V138.448H36.7141C38.0393 138.448 39.0273 138.774 39.6782 139.425C40.2478 139.994 40.5326 140.785 40.5326 141.796C40.5326 142.505 40.3757 143.092 40.0618 143.557C39.7596 144.022 39.254 144.429 38.5449 144.778C39.1145 144.999 39.5329 145.295 39.8003 145.667C40.0677 146.051 40.2188 146.835 40.2536 148.021C40.2769 148.893 40.3292 149.48 40.4106 149.782C40.5036 150.072 40.7012 150.322 41.0034 150.532V150.933H39.0854C38.8297 150.398 38.7018 149.834 38.7018 149.241L38.7193 147.289C38.7193 147.161 38.667 146.963 38.5623 146.696C38.4577 146.428 38.3589 146.237 38.2659 146.12C37.9521 145.748 37.4174 145.562 36.6618 145.562H32.5643ZM32.5643 144.15H36.4177C38.0567 144.15 38.8762 143.435 38.8762 142.005C38.8762 140.576 38.0567 139.861 36.4177 139.861H32.5643V144.15ZM48.4309 138.257C50.3605 138.257 51.8833 138.925 52.9992 140.262C53.964 141.424 54.4464 142.9 54.4464 144.691C54.4464 146.748 53.8245 148.375 52.5807 149.573C51.4881 150.607 50.1048 151.124 48.4309 151.124C46.4897 151.124 44.9611 150.456 43.8452 149.119C42.8804 147.957 42.398 146.481 42.398 144.691C42.398 142.633 43.0257 141.006 44.2811 139.808C45.3622 138.774 46.7454 138.257 48.4309 138.257ZM48.4135 139.669C46.9953 139.669 45.8736 140.186 45.0483 141.221C44.3392 142.127 43.9847 143.284 43.9847 144.691C43.9847 146.306 44.4439 147.579 45.3622 148.509C46.1642 149.311 47.1813 149.712 48.4135 149.712C49.8433 149.712 50.9708 149.195 51.7961 148.16C52.5052 147.254 52.8597 146.097 52.8597 144.691C52.8597 143.075 52.4006 141.802 51.4823 140.872C50.6802 140.07 49.6573 139.669 48.4135 139.669ZM56.5853 150.933V138.448H61.3977C63.0832 138.448 64.3793 139.076 65.286 140.331C66.0764 141.436 66.4716 142.889 66.4716 144.691C66.4716 146.76 65.9602 148.352 64.9372 149.468C64.0422 150.444 62.8623 150.933 61.3977 150.933H56.5853ZM58.172 149.52H61.1187C63.6295 149.52 64.8849 147.91 64.8849 144.691C64.8849 141.471 63.6295 139.861 61.1187 139.861H58.172V149.52ZM76.8807 138.448H78.4674V147.01C78.4674 148.358 77.9734 149.404 76.9854 150.148C76.1368 150.799 75.0267 151.124 73.6551 151.124C72.0742 151.124 70.8536 150.712 69.9935 149.887C69.2495 149.154 68.8775 148.195 68.8775 147.01V138.448H70.4642V147.01C70.4642 147.87 70.7432 148.538 71.3012 149.015C71.8591 149.48 72.6438 149.712 73.6551 149.712C74.7245 149.712 75.5498 149.445 76.131 148.91C76.6308 148.433 76.8807 147.8 76.8807 147.01V138.448ZM91.1258 142.267H89.4868C89.3125 141.43 89.0102 140.82 88.5801 140.436C88.0222 139.925 87.2085 139.669 86.1391 139.669C84.8372 139.669 83.8317 140.18 83.1226 141.203C82.5065 142.098 82.1985 143.272 82.1985 144.725C82.1985 146.364 82.6112 147.637 83.4365 148.544C84.1688 149.323 85.1103 149.712 86.2611 149.712C87.6676 149.712 88.6383 149.195 89.173 148.16C89.4171 147.684 89.6089 147.05 89.7484 146.26H91.3874C91.0038 149.503 89.3008 151.124 86.2786 151.124C84.6512 151.124 83.3667 150.648 82.4252 149.695C81.2163 148.474 80.6118 146.835 80.6118 144.778C80.6118 142.778 81.193 141.134 82.3554 139.843C83.3086 138.785 84.6221 138.257 86.296 138.257C89.016 138.257 90.626 139.593 91.1258 142.267ZM98.2221 139.861V150.933H96.6354V139.861H92.5204V138.448H102.302V139.861H98.2221ZM112.809 142.04H111.31C111.275 140.413 110.235 139.599 108.189 139.599C107.352 139.599 106.678 139.791 106.166 140.175C105.655 140.547 105.399 141.041 105.399 141.657C105.399 142.122 105.55 142.494 105.852 142.773C106.166 143.04 106.701 143.272 107.456 143.47L110.421 144.237C112.304 144.737 113.245 145.783 113.245 147.376C113.245 148.526 112.786 149.462 111.868 150.183C111.054 150.811 109.886 151.124 108.363 151.124C106.433 151.124 105.033 150.543 104.161 149.381C103.696 148.753 103.452 147.91 103.429 146.853H104.928V146.887C104.928 147.794 105.236 148.497 105.852 148.997C106.48 149.485 107.352 149.73 108.468 149.73C109.491 149.73 110.252 149.561 110.752 149.224C111.345 148.817 111.641 148.248 111.641 147.515C111.641 146.585 110.88 145.929 109.357 145.545L106.253 144.743C104.626 144.324 103.812 143.365 103.812 141.866C103.812 140.68 104.26 139.762 105.155 139.111C105.934 138.541 106.962 138.257 108.241 138.257C110.054 138.257 111.35 138.785 112.129 139.843C112.583 140.459 112.809 141.128 112.809 141.848C112.809 141.883 112.809 141.947 112.809 142.04Z" fill="#291570"/>
<mask id="mask0_1_72" style="mask-type:alpha" maskUnits="userSpaceOnUse" x="11" y="0" width="111" height="110">
<circle cx="66.4852" cy="54.8061" r="54.8061" fill="url(#paint1_linear_1_72)"/>
</mask>
<g mask="url(#mask0_1_72)">
<path d="M45.4623 74.0261C40.4666 68.8454 37.9687 61.6757 37.9687 52.5169C37.9687 41.7854 41.1142 33.3205 47.405 27.1221C53.0483 21.5713 60.4956 18.7034 69.7469 18.5184C77.5179 18.5184 83.7163 20.4612 88.3419 24.3467C93.7077 28.7873 96.3906 35.217 96.3906 43.6357V70.6957C96.3906 74.3962 95.0954 77.5416 92.505 80.132C90.0997 82.6298 87.2318 83.8787 83.9013 83.8787H44.2133C40.6978 83.8787 38.9401 85.6365 38.9401 89.152V130.783L32.973 135.64H27.1447V87.0704C27.1447 83.5549 28.3936 80.502 30.8915 77.9117C33.3893 75.3213 36.3497 74.0261 39.7727 74.0261H45.4623ZM84.4564 43.6357C84.4564 39.4726 83.3 35.9571 80.9872 33.0892C78.2118 29.9438 74.3725 28.371 69.4693 28.371C63.641 28.371 58.8766 30.4988 55.1761 34.7544C51.5681 38.9175 49.7641 44.3758 49.7641 51.1292C49.7641 58.3452 51.5681 64.081 55.1761 68.3366C58.4141 72.1296 62.3921 74.0261 67.1103 74.0261H79.3219C82.7449 74.0261 84.4564 72.2684 84.4564 68.7529V43.6357Z" fill="white"/>
</g>
<defs>
<linearGradient id="paint0_linear_1_72" x1="66.4852" y1="0" x2="66.4852" y2="122.929" gradientUnits="userSpaceOnUse">
<stop stop-color="#4523BC"/>
<stop offset="1" stop-color="#1F1056"/>
</linearGradient>
<linearGradient id="paint1_linear_1_72" x1="66.4852" y1="0" x2="66.4852" y2="122.929" gradientUnits="userSpaceOnUse">
<stop stop-color="#4523BC"/>
<stop offset="1" stop-color="#1F1056"/>
</linearGradient>
</defs>
</svg>
